<svg id="svg" version="1.1" width="400" height="441.5011037527594" viewBox="0 0 400 441.5011037527594" xmlns="http://www.w3.org/2000/svg" xmlns:xlink="http://www.w3.org/1999/xlink" ><g id="svgg"><path id="path0" d="M73.201 220.027 L 73.198 388.098 76.699 387.877 C 78.625 387.755,82.180 387.364,84.600 387.007 C 87.020 386.649,90.718 386.213,92.819 386.036 C 94.919 385.860,97.010 385.516,97.466 385.272 C 97.922 385.028,98.408 384.941,98.546 385.079 C 98.780 385.313,103.571 384.906,111.600 383.971 C 113.470 383.753,116.080 383.500,117.400 383.409 C 118.720 383.319,121.600 383.058,123.800 382.830 C 132.663 381.912,136.382 381.558,140.208 381.266 C 142.412 381.099,144.460 380.810,144.759 380.625 C 145.058 380.440,146.315 380.221,147.551 380.138 C 151.540 379.871,153.983 379.551,154.156 379.272 C 154.248 379.122,155.376 378.945,156.662 378.879 C 157.948 378.812,160.465 378.407,162.255 377.979 C 164.045 377.551,166.043 377.200,166.695 377.200 C 167.740 377.200,169.276 376.826,171.200 376.104 C 172.048 375.786,172.819 375.605,174.200 375.402 C 177.531 374.910,178.659 374.676,179.286 374.347 C 179.664 374.149,181.529 373.715,183.431 373.383 C 185.333 373.052,187.261 372.581,187.716 372.338 C 188.170 372.095,189.455 371.822,190.571 371.732 C 191.687 371.642,193.410 371.317,194.400 371.010 C 196.693 370.300,203.932 368.765,206.800 368.382 C 208.010 368.220,209.990 367.800,211.200 367.449 C 212.410 367.097,214.059 366.807,214.864 366.805 C 215.670 366.802,217.470 366.442,218.864 366.005 C 220.259 365.568,222.081 365.208,222.913 365.205 C 223.745 365.202,225.455 364.860,226.713 364.445 C 227.971 364.029,230.260 363.477,231.800 363.217 C 233.340 362.957,235.410 362.386,236.400 361.947 C 237.390 361.509,239.190 360.906,240.400 360.608 C 241.610 360.309,243.631 359.691,244.890 359.233 C 246.150 358.775,247.689 358.400,248.310 358.400 C 248.932 358.400,249.656 358.184,249.920 357.920 C 250.184 357.656,250.400 357.562,250.400 357.710 C 250.400 357.859,250.892 357.793,251.492 357.565 C 252.093 357.336,254.087 356.888,255.923 356.567 C 257.759 356.247,259.922 355.649,260.730 355.239 C 261.539 354.828,263.322 354.206,264.694 353.856 C 266.065 353.506,268.122 352.746,269.265 352.167 C 270.407 351.588,272.255 350.847,273.371 350.519 C 274.487 350.192,276.210 349.492,277.200 348.965 C 279.758 347.601,283.311 346.438,286.863 345.800 C 288.547 345.498,291.221 344.699,292.804 344.025 C 294.388 343.351,296.102 342.800,296.613 342.800 C 297.124 342.800,299.040 342.245,300.871 341.567 C 302.702 340.889,305.370 339.917,306.800 339.409 C 310.629 338.046,312.403 337.235,313.775 336.220 C 314.449 335.721,316.444 334.587,318.210 333.699 C 330.052 327.746,337.018 320.246,338.178 312.200 C 338.305 311.320,338.596 309.790,338.825 308.800 C 340.121 303.181,340.351 301.170,339.968 298.792 C 338.762 291.303,334.293 285.975,327.233 283.607 C 325.821 283.134,323.931 282.245,323.033 281.632 C 320.870 280.156,317.554 278.969,314.600 278.614 C 311.030 278.184,307.670 277.245,305.200 275.987 C 303.990 275.371,301.920 274.559,300.600 274.182 C 298.467 273.574,295.773 272.673,293.400 271.773 C 292.960 271.606,292.510 271.451,292.400 271.428 C 292.290 271.406,292.019 271.272,291.797 271.130 C 291.429 270.895,289.508 270.345,280.200 267.810 C 278.440 267.331,276.100 266.360,275.000 265.653 C 273.900 264.946,272.010 264.082,270.800 263.733 C 269.590 263.383,267.709 262.649,266.619 262.101 C 265.529 261.553,263.549 260.775,262.219 260.373 C 260.889 259.970,257.820 258.937,255.400 258.076 C 252.980 257.215,250.190 256.226,249.200 255.877 C 248.210 255.529,246.320 254.860,245.000 254.391 C 243.680 253.921,241.520 253.175,240.200 252.733 C 238.880 252.291,236.810 251.485,235.600 250.941 C 234.390 250.398,233.130 249.907,232.800 249.850 C 230.789 249.500,229.183 248.994,227.600 248.211 C 226.610 247.721,224.543 247.011,223.008 246.632 C 221.472 246.254,219.987 245.755,219.708 245.523 C 219.428 245.292,219.197 245.259,219.194 245.451 C 219.191 245.643,219.056 245.610,218.894 245.378 C 218.732 245.145,217.880 244.592,217.000 244.148 C 216.120 243.704,214.860 243.048,214.200 242.691 C 212.771 241.917,211.514 241.449,211.100 241.536 C 210.935 241.571,210.800 241.445,210.800 241.255 C 210.800 241.066,207.785 239.401,204.100 237.555 C 200.415 235.710,197.162 233.975,196.871 233.700 C 196.581 233.425,196.086 233.200,195.771 233.200 C 195.457 233.200,195.200 233.032,195.200 232.827 C 195.200 232.518,193.610 231.766,193.309 231.933 C 193.258 231.961,192.364 231.072,191.322 229.958 C 190.280 228.844,188.611 227.460,187.614 226.883 C 186.616 226.306,184.603 224.970,183.140 223.914 C 181.342 222.616,180.241 222.072,179.740 222.235 C 179.212 222.407,179.149 222.368,179.521 222.101 C 179.911 221.821,179.311 221.081,177.137 219.163 C 175.539 217.753,172.924 215.250,171.326 213.600 C 169.729 211.950,168.417 210.735,168.411 210.900 C 168.398 211.250,167.907 210.856,164.400 207.678 C 162.970 206.383,161.200 204.980,160.466 204.561 C 159.733 204.143,158.185 202.900,157.027 201.800 C 155.869 200.700,152.419 197.422,149.361 194.515 C 146.302 191.607,143.080 188.695,142.200 188.043 C 141.320 187.391,139.003 185.138,137.051 183.035 C 135.099 180.933,133.316 179.328,133.089 179.468 C 132.862 179.609,132.790 179.539,132.930 179.313 C 133.069 179.088,132.819 178.483,132.374 177.970 C 131.928 177.456,131.197 176.443,130.749 175.718 C 130.301 174.993,129.769 174.400,129.567 174.400 C 129.365 174.400,129.200 174.162,129.200 173.872 C 129.200 173.582,128.795 172.968,128.300 172.508 C 127.805 172.049,127.074 171.203,126.675 170.628 C 126.276 170.054,125.783 169.687,125.580 169.813 C 125.376 169.938,125.315 169.765,125.445 169.426 C 125.636 168.930,123.400 165.018,121.307 162.184 C 121.138 161.956,120.952 161.543,120.894 161.267 C 120.796 160.800,118.862 157.646,118.401 157.200 C 118.287 157.090,117.668 156.010,117.026 154.800 C 115.975 152.821,114.531 150.531,114.000 150.000 C 113.890 149.890,113.429 149.080,112.977 148.200 C 112.524 147.320,111.925 146.649,111.647 146.710 C 111.368 146.770,111.258 146.630,111.401 146.399 C 111.544 146.167,111.316 145.218,110.895 144.289 C 110.473 143.360,109.709 141.655,109.196 140.500 C 108.683 139.345,108.114 138.400,107.932 138.400 C 107.749 138.400,107.600 138.161,107.600 137.868 C 107.600 137.575,106.706 135.640,105.613 133.568 C 104.521 131.496,103.344 129.177,102.998 128.415 C 102.652 127.653,102.078 126.708,101.723 126.315 C 101.367 125.922,101.205 125.600,101.362 125.600 C 101.645 125.600,99.566 121.541,98.270 119.563 C 97.902 119.001,97.167 117.268,96.638 115.712 C 96.109 114.156,95.029 111.520,94.238 109.853 C 93.447 108.186,92.800 106.662,92.800 106.465 C 92.800 105.830,91.103 102.000,90.821 102.000 C 90.672 102.000,90.302 101.370,90.000 100.600 C 89.698 99.830,89.274 99.200,89.059 99.200 C 88.843 99.200,88.777 99.090,88.912 98.955 C 89.226 98.641,88.064 95.619,87.276 94.700 C 86.946 94.315,86.786 94.000,86.921 94.000 C 87.056 94.000,86.634 92.875,85.983 91.500 C 85.333 90.125,84.800 88.715,84.800 88.367 C 84.800 88.018,84.675 87.608,84.522 87.455 C 84.369 87.302,84.191 86.957,84.127 86.688 C 84.009 86.194,82.586 81.785,81.130 77.400 C 80.692 76.080,80.057 73.920,79.718 72.600 C 79.380 71.280,78.945 69.887,78.752 69.505 C 78.558 69.123,78.400 68.438,78.400 67.982 C 78.400 67.457,78.231 67.258,77.938 67.438 C 77.666 67.606,77.584 67.549,77.739 67.298 C 78.044 66.806,77.643 65.528,77.258 65.761 C 77.116 65.847,76.976 65.260,76.946 64.456 C 76.916 63.652,76.480 61.646,75.977 59.997 C 75.473 58.349,74.997 56.640,74.918 56.200 C 74.585 54.330,73.951 52.417,73.591 52.194 C 73.342 52.040,73.203 111.768,73.201 220.027 " stroke="none" fill="#dcf4c4" fill-rule="evenodd"></path><path id="path1" d="" stroke="none" fill="#e0f4c4" fill-rule="evenodd"></path></g></svg>