<svg id="svg" version="1.1" width="400" height="441.5116976604679" viewBox="0 0 400 441.5116976604679" xmlns="http://www.w3.org/2000/svg" xmlns:xlink="http://www.w3.org/1999/xlink" ><g id="svgg"><path id="path0" d="M325.880 52.729 C 325.730 53.092,325.289 54.631,324.900 56.149 C 324.511 57.666,323.919 59.919,323.584 61.154 C 323.249 62.390,322.975 63.804,322.975 64.296 C 322.975 64.888,322.812 65.340,322.496 65.627 C 322.232 65.866,322.016 66.314,322.016 66.624 C 322.016 66.933,321.929 67.187,321.823 67.187 C 321.717 67.187,321.511 67.699,321.365 68.326 C 320.722 71.086,315.952 86.279,315.343 87.510 C 315.225 87.748,314.908 88.590,314.640 89.382 C 313.934 91.463,313.001 93.672,311.922 95.820 C 311.403 96.853,310.978 98.004,310.978 98.379 C 310.978 98.754,310.872 99.096,310.743 99.140 C 310.613 99.184,310.188 99.814,309.799 100.540 C 309.409 101.266,308.769 102.457,308.377 103.187 C 307.985 103.917,307.451 105.159,307.191 105.947 C 306.931 106.734,306.206 108.512,305.581 109.898 C 304.955 111.284,303.914 113.821,303.266 115.537 C 302.619 117.253,301.726 119.250,301.282 119.976 C 300.282 121.613,298.500 125.153,298.500 125.506 C 298.500 125.649,298.240 126.111,297.922 126.531 C 297.220 127.459,292.262 137.393,292.262 137.872 C 292.262 138.059,292.147 138.212,292.006 138.212 C 291.686 138.212,288.983 143.893,288.592 145.387 C 288.433 145.994,288.083 146.670,287.813 146.889 C 287.543 147.107,287.012 147.863,286.633 148.568 C 286.254 149.273,285.696 150.150,285.393 150.517 C 285.090 150.884,284.223 152.287,283.466 153.636 C 282.709 154.985,281.562 156.880,280.918 157.846 C 280.273 158.813,279.510 160.108,279.222 160.725 C 278.934 161.343,278.331 162.379,277.882 163.028 C 276.335 165.264,274.505 168.543,274.505 169.078 C 274.505 169.395,274.318 169.673,274.047 169.759 C 273.795 169.839,273.416 170.167,273.206 170.488 C 272.995 170.810,272.338 171.619,271.745 172.287 C 271.151 172.955,270.666 173.595,270.666 173.709 C 270.666 173.824,270.315 174.286,269.886 174.737 C 269.457 175.188,268.620 176.280,268.026 177.165 C 266.921 178.812,259.712 186.138,256.059 189.327 C 254.954 190.291,252.102 192.925,249.722 195.180 C 242.742 201.793,240.963 203.387,239.271 204.543 C 238.392 205.144,236.389 206.770,234.821 208.157 C 233.253 209.543,231.847 210.678,231.696 210.678 C 231.546 210.678,230.508 211.604,229.389 212.736 C 228.270 213.868,225.814 216.206,223.931 217.932 C 222.047 219.658,220.443 221.323,220.365 221.633 C 220.270 222.014,220.050 222.196,219.686 222.196 C 218.773 222.196,210.782 227.725,208.638 229.840 C 207.559 230.905,206.427 231.802,206.053 231.890 C 205.686 231.976,205.184 232.248,204.937 232.496 C 204.689 232.743,204.262 233.017,203.988 233.104 C 203.713 233.191,202.866 233.640,202.104 234.100 C 201.343 234.561,198.884 235.864,196.641 236.996 C 192.158 239.258,189.246 240.883,189.122 241.192 C 189.078 241.302,188.849 241.392,188.613 241.392 C 188.235 241.392,183.015 243.890,181.404 244.843 C 180.635 245.297,178.837 245.955,175.525 246.995 C 174.073 247.451,172.214 248.107,171.394 248.453 C 170.574 248.799,169.033 249.299,167.970 249.563 C 166.907 249.828,165.202 250.409,164.182 250.854 C 162.355 251.652,143.832 258.230,138.452 259.992 C 136.935 260.489,134.667 261.352,133.413 261.910 C 132.160 262.468,130.270 263.218,129.214 263.578 C 128.158 263.937,126.323 264.753,125.135 265.391 C 122.301 266.914,121.388 267.235,114.615 269.094 C 111.468 269.958,108.553 270.816,108.136 271.002 C 106.720 271.633,103.548 272.757,100.310 273.775 C 98.535 274.334,96.051 275.254,94.792 275.820 C 91.721 277.199,89.927 277.728,86.242 278.337 C 81.883 279.057,79.199 279.998,76.314 281.817 C 75.847 282.112,74.439 282.759,73.185 283.256 C 62.312 287.563,58.016 295.568,60.561 306.779 C 60.921 308.362,61.412 310.738,61.654 312.058 C 63.233 320.694,69.104 327.134,81.344 333.654 C 83.257 334.674,85.294 335.824,85.870 336.211 C 88.247 337.806,99.026 342.011,102.741 342.793 C 103.622 342.979,105.620 343.606,107.181 344.188 C 108.741 344.770,111.508 345.579,113.330 345.986 C 117.301 346.875,119.645 347.638,122.376 348.932 C 123.497 349.464,125.279 350.198,126.335 350.563 C 127.391 350.928,129.226 351.664,130.414 352.198 C 131.602 352.732,133.707 353.517,135.093 353.943 C 136.479 354.369,138.368 355.017,139.292 355.383 C 140.216 355.749,142.558 356.385,144.497 356.797 C 146.436 357.208,148.650 357.745,149.416 357.989 C 150.183 358.233,151.296 358.493,151.890 358.568 C 152.959 358.702,156.860 359.869,161.728 361.512 C 163.113 361.979,165.111 362.580,166.167 362.846 C 172.093 364.342,175.969 365.223,177.564 365.435 C 178.554 365.567,180.174 365.901,181.164 366.178 C 182.154 366.455,183.876 366.785,184.991 366.912 C 186.107 367.039,188.050 367.396,189.311 367.707 C 190.571 368.017,193.265 368.564,195.299 368.923 C 197.333 369.282,200.572 369.956,202.498 370.420 C 204.423 370.885,206.917 371.421,208.038 371.611 C 209.160 371.801,211.266 372.268,212.717 372.649 C 214.169 373.029,216.323 373.516,217.504 373.730 C 218.685 373.943,220.031 374.277,220.495 374.471 C 220.959 374.665,222.679 375.041,224.317 375.307 C 225.955 375.574,228.237 376.097,229.389 376.470 C 230.541 376.844,232.174 377.226,233.018 377.320 C 233.863 377.415,236.119 377.797,238.032 378.171 C 239.946 378.544,242.268 378.922,243.191 379.010 C 244.115 379.098,245.411 379.319,246.071 379.500 C 246.731 379.682,248.944 379.988,250.990 380.180 C 253.035 380.372,255.018 380.647,255.395 380.790 C 255.772 380.934,258.471 381.267,261.393 381.530 C 264.316 381.794,269.892 382.324,273.785 382.709 C 277.678 383.093,281.728 383.477,282.783 383.563 C 283.839 383.648,287.025 383.972,289.862 384.283 C 297.022 385.069,301.109 385.411,301.374 385.246 C 301.499 385.170,302.117 385.271,302.750 385.471 C 303.382 385.671,306.005 386.058,308.578 386.331 C 311.152 386.603,314.283 386.974,315.537 387.155 C 317.999 387.510,321.679 387.895,324.835 388.129 L 326.815 388.275 326.815 228.490 C 326.815 78.049,326.743 52.070,326.325 52.070 C 326.230 52.070,326.030 52.367,325.880 52.729 " stroke="none" fill="#fcfcfc" fill-rule="evenodd"></path><path id="path1" d="" stroke="none" fill="#100fcfc" fill-rule="evenodd"></path></g></svg>